PathFileType	4	(X/Y/Z)	D:\TRACE\v60_Jaco2_6-2-23\BothDRS_Motion3_6-platform.trc
DataRate	CameraRate	NumFrames	NumMarkers	Units	OrigDataRate	OrigDataStartFrame	OrigNumFrames
100.00	100.00	      24	5	mm	100.00	876	      7000
Frame#	Time	Left_Front			Right_Front			Left_Aft			Right_Aft			Post			
		X1	Y1	Z1	X2	Y2	Z2	X3	Y3	Z3	X4	Y4	Z4	X5	Y5	Z5	

876	8.750	-770.32123	-17.03963	-656.44342	800.23285	-18.11922	-633.90082	-700.43921	29.35843	479.26736	713.56525	30.18752	582.01398	25.52456	1266.97595	-1021.52679	
877	8.760	-770.29718	-16.88581	-656.37671	800.28094	-17.88426	-633.84174	-700.39325	29.22476	479.34497	713.56494	30.10278	582.03906	25.47502	1267.26880	-1021.06549	
878	8.770	-770.29962	-16.46883	-656.32251	800.32416	-17.74525	-633.80609	-700.45251	29.09617	479.38593	713.51361	29.89292	582.04675	25.31699	1267.48853	-1020.40161	
879	8.780	-769.96991	-15.94075	-656.07703	800.31781	-17.53654	-633.77325	-700.43750	29.03557	479.44550	713.44751	29.71112	582.07910	25.58070	1267.97949	-1019.90570	
880	8.790	-770.06287	-15.59685	-656.17389	800.24188	-17.35733	-633.72687	-700.38629	28.99053	479.46646	713.40857	29.53714	582.16498	25.58417	1268.39258	-1019.11841	
881	8.800	-770.32568	-15.42469	-656.43542	800.53204	-17.42201	-634.11066	-700.35754	28.92720	479.48993	713.36267	29.31767	582.23407	25.63696	1268.69299	-1018.55750	
882	8.810	-770.26404	-15.19079	-656.42676	800.62341	-17.27217	-634.04187	-700.24371	28.88856	479.49365	713.46417	29.08675	582.33093	25.56372	1269.01050	-1018.06635	
883	8.820	-770.11462	-15.21646	-656.47052	800.73901	-16.84235	-633.62054	-700.48682	28.81295	479.43536	713.50012	28.74965	582.53204	25.64506	1269.22742	-1017.80072	
884	8.830	-769.84137	-15.03803	-656.43964	800.88422	-16.60518	-633.56433	-700.42657	28.78488	479.45526	713.61578	28.62166	582.54547	25.93447	1269.49878	-1017.26996	
885	8.840	-769.77368	-14.81836	-656.27362	801.10419	-16.46003	-633.47247	-700.19678	28.60216	479.54144	713.98621	28.58382	582.51007	26.10151	1269.70459	-1017.03357	
886	8.850	-769.68652	-14.80123	-656.26099	801.18604	-16.29619	-633.43604	-700.02002	28.39775	479.60562	713.87238	28.50348	582.76208	26.38071	1270.06213	-1016.49091	
887	8.860	-769.62335	-14.65205	-656.21240	801.35437	-16.12846	-633.32562	-699.77289	28.08109	479.60001	714.22925	28.35069	582.63300	26.51736	1270.28674	-1016.24597	
888	8.870	-769.62231	-14.49087	-656.11615	801.37952	-16.02217	-633.35187	-699.55896	27.74917	479.67661	714.21002	28.20120	582.63544	26.52822	1270.40662	-1016.19287	
889	8.880	-769.49072	-14.31973	-656.05432	801.49536	-15.95182	-633.32330	-699.59039	28.11025	479.28305	714.25946	28.10035	582.64227	26.59093	1270.48035	-1016.05402	
890	8.890	-769.36298	-14.15079	-655.95630	801.57983	-15.85402	-633.26953	-699.70337	28.29385	479.50613	714.45099	28.08606	582.69037	26.66953	1270.66443	-1015.90375	
891	8.900	-769.03308	-13.99253	-655.88214	801.73724	-15.80169	-633.25928	-699.62286	28.31613	479.55286	714.65619	28.01524	582.76331	26.76007	1270.80737	-1015.78003	
892	8.910	-768.74713	-13.98850	-655.78680	801.88116	-15.65204	-633.24609	-699.55530	28.30040	479.54941	715.07129	28.15501	582.77643	26.97142	1270.99683	-1015.61584	
893	8.920	-768.77350	-13.95682	-655.63922	802.09839	-15.55782	-633.27130	-699.43781	28.22544	479.60147	715.35248	28.11799	582.77820	27.08481	1271.13367	-1015.49829	
894	8.930	-768.50031	-13.82523	-655.40656	802.23901	-15.42353	-633.28809	-699.23303	28.17037	479.62701	715.56030	28.03069	582.71600	27.27903	1271.34753	-1015.22784	
895	8.940	-768.08813	-13.90996	-655.51752	802.59320	-15.50428	-633.67670	-699.06909	28.14036	479.65842	715.78656	28.02382	582.73462	27.50754	1271.66382	-1014.84991	
896	8.950	-767.76953	-13.95608	-655.75092	802.72888	-15.46084	-633.69000	-698.87463	28.05717	479.70398	715.85944	27.97487	582.69946	27.68576	1271.91687	-1014.59619	
897	8.960	-767.60010	-13.92966	-655.80383	802.76624	-15.14330	-633.31586	-698.61798	27.84899	479.76404	715.98474	27.94346	582.73120	27.94416	1272.01184	-1014.32367	
898	8.970	-767.43774	-13.96240	-655.87640	803.07629	-15.01030	-633.09009	-698.28180	27.65870	479.94943	716.14948	27.82345	582.74200	28.12778	1272.12061	-1014.17017	
899	8.980	-767.16553	-13.80875	-655.86633	803.18268	-14.97908	-633.11353	-698.01752	27.44556	480.13107	716.34149	27.70493	582.85248	28.26992	1272.18005	-1014.06226	
